<?xml version="1.0" encoding="UTF-8"?>
<svg xmlns="http://www.w3.org/2000/svg" xmlns:xlink="http://www.w3.org/1999/xlink" width="27px" height="27px" viewBox="0 0 27 27" version="1.1">
<g id="surface1">
<path style=" stroke:none;fill-rule:nonzero;fill:rgb(0%,0%,0%);fill-opacity:1;" d="M 7.285156 1.929688 C 5.625 3.535156 6.804688 6.429688 9.105469 6.429688 C 10.394531 6.429688 11.785156 5.035156 11.785156 3.75 C 11.785156 2.464844 10.394531 1.070312 9.105469 1.070312 C 8.570312 1.070312 7.714844 1.445312 7.285156 1.929688 Z M 7.285156 1.929688 "/>
<path style=" stroke:none;fill-rule:nonzero;fill:rgb(0%,0%,0%);fill-opacity:1;" d="M 15.855469 1.929688 C 14.25 3.535156 15.375 6.429688 17.625 6.429688 C 18.75 6.429688 20.355469 4.820312 20.355469 3.644531 C 20.355469 2.625 18.644531 1.070312 17.519531 1.070312 C 17.089844 1.070312 16.285156 1.445312 15.855469 1.929688 Z M 15.855469 1.929688 "/>
<path style=" stroke:none;fill-rule:nonzero;fill:rgb(0%,0%,0%);fill-opacity:1;" d="M 8.304688 7.875 C 9.105469 9.75 9.214844 11.679688 8.570312 12.855469 C 8.089844 13.714844 8.089844 14.195312 8.519531 14.625 C 8.945312 15.054688 9.105469 14.785156 9.105469 13.769531 C 9.105469 12.214844 11.195312 9.644531 12.375 9.644531 C 12.75 9.644531 12.480469 9.054688 11.785156 8.304688 C 10.285156 6.695312 7.660156 6.429688 8.304688 7.875 Z M 8.304688 7.875 "/>
<path style=" stroke:none;fill-rule:nonzero;fill:rgb(0%,0%,0%);fill-opacity:1;" d="M 14.945312 8.089844 L 13.769531 9.269531 L 15.160156 10.019531 C 16.769531 10.820312 17.679688 12.269531 17.679688 13.980469 C 17.679688 14.894531 17.839844 15.054688 18.269531 14.625 C 18.695312 14.195312 18.695312 13.714844 18.214844 12.855469 C 17.570312 11.679688 17.679688 9.75 18.480469 7.875 C 19.070312 6.480469 16.394531 6.644531 14.945312 8.089844 Z M 14.945312 8.089844 "/>
<path style=" stroke:none;fill-rule:nonzero;fill:rgb(0%,0%,0%);fill-opacity:1;" d="M 2.679688 8.570312 C 2.089844 9.160156 1.605469 10.125 1.605469 10.714844 C 1.605469 12.105469 3.429688 13.929688 4.820312 13.929688 C 6.214844 13.929688 8.035156 12.105469 8.035156 10.714844 C 8.035156 9.320312 6.214844 7.5 4.820312 7.5 C 4.230469 7.5 3.269531 7.980469 2.679688 8.570312 Z M 2.679688 8.570312 "/>
<path style=" stroke:none;fill-rule:nonzero;fill:rgb(0%,0%,0%);fill-opacity:1;" d="M 19.820312 8.570312 C 19.230469 9.160156 18.75 10.125 18.75 10.714844 C 18.75 11.304688 19.230469 12.269531 19.820312 12.855469 C 20.410156 13.445312 21.375 13.929688 21.964844 13.929688 C 23.355469 13.929688 25.179688 12.105469 25.179688 10.714844 C 25.179688 10.125 24.695312 9.160156 24.105469 8.570312 C 23.519531 7.980469 22.554688 7.5 21.964844 7.5 C 21.375 7.5 20.410156 7.980469 19.820312 8.570312 Z M 19.820312 8.570312 "/>
<path style=" stroke:none;fill-rule:nonzero;fill:rgb(0%,0%,0%);fill-opacity:1;" d="M 11.25 11.785156 C 10.660156 12.375 10.179688 13.339844 10.179688 13.929688 C 10.179688 15.320312 12 17.144531 13.394531 17.144531 C 14.785156 17.144531 16.605469 15.320312 16.605469 13.929688 C 16.605469 13.339844 16.125 12.375 15.535156 11.785156 C 14.945312 11.195312 13.980469 10.714844 13.394531 10.714844 C 12.804688 10.714844 11.839844 11.195312 11.25 11.785156 Z M 11.25 11.785156 "/>
<path style=" stroke:none;fill-rule:nonzero;fill:rgb(0%,0%,0%);fill-opacity:1;" d="M 1.554688 16.019531 C 0.429688 17.195312 0 18.105469 0 19.5 C 0 21.75 1.230469 22.5 4.980469 22.5 C 7.125 22.445312 7.285156 22.339844 8.410156 19.980469 L 9.589844 17.519531 L 8.035156 16.019531 C 5.945312 13.929688 3.644531 13.929688 1.554688 16.019531 Z M 1.554688 16.019531 "/>
<path style=" stroke:none;fill-rule:nonzero;fill:rgb(0%,0%,0%);fill-opacity:1;" d="M 18.75 16.019531 L 17.195312 17.519531 L 18.375 19.980469 C 19.5 22.339844 19.660156 22.445312 21.804688 22.5 C 25.554688 22.5 26.785156 21.75 26.785156 19.5 C 26.785156 18.105469 26.355469 17.195312 25.230469 16.019531 C 23.144531 13.929688 20.839844 13.929688 18.75 16.019531 Z M 18.75 16.019531 "/>
<path style=" stroke:none;fill-rule:nonzero;fill:rgb(0%,0%,0%);fill-opacity:1;" d="M 10.125 19.230469 C 8.035156 21.375 7.929688 24.429688 9.964844 25.179688 C 11.730469 25.875 15.054688 25.875 16.820312 25.179688 C 20.144531 23.945312 17.304688 17.679688 13.394531 17.679688 C 12.214844 17.679688 11.195312 18.160156 10.125 19.230469 Z M 10.125 19.230469 "/>
</g>
</svg>
