<?xml version="1.0" encoding="UTF-8"?>
<svg xmlns="http://www.w3.org/2000/svg" xmlns:xlink="http://www.w3.org/1999/xlink" width="27px" height="27px" viewBox="0 0 27 27" version="1.1">
<g id="surface1">
<path style=" stroke:none;fill-rule:nonzero;fill:rgb(0%,0%,0%);fill-opacity:1;" d="M 2.109375 1.6875 L 8.015625 1.6875 C 8.246094 1.6875 8.4375 1.878906 8.4375 2.109375 L 8.4375 8.015625 C 8.4375 8.246094 8.246094 8.4375 8.015625 8.4375 L 2.109375 8.4375 C 1.878906 8.4375 1.6875 8.246094 1.6875 8.015625 L 1.6875 2.109375 C 1.6875 1.878906 1.878906 1.6875 2.109375 1.6875 Z M 2.109375 1.6875 "/>
<path style=" stroke:none;fill-rule:nonzero;fill:rgb(0%,0%,0%);fill-opacity:1;" d="M 10.546875 1.6875 L 16.453125 1.6875 C 16.683594 1.6875 16.875 1.878906 16.875 2.109375 L 16.875 8.015625 C 16.875 8.246094 16.683594 8.4375 16.453125 8.4375 L 10.546875 8.4375 C 10.316406 8.4375 10.125 8.246094 10.125 8.015625 L 10.125 2.109375 C 10.125 1.878906 10.316406 1.6875 10.546875 1.6875 Z M 10.546875 1.6875 "/>
<path style=" stroke:none;fill-rule:nonzero;fill:rgb(0%,0%,0%);fill-opacity:1;" d="M 18.984375 1.6875 L 24.890625 1.6875 C 25.121094 1.6875 25.3125 1.878906 25.3125 2.109375 L 25.3125 8.015625 C 25.3125 8.246094 25.121094 8.4375 24.890625 8.4375 L 18.984375 8.4375 C 18.753906 8.4375 18.5625 8.246094 18.5625 8.015625 L 18.5625 2.109375 C 18.5625 1.878906 18.753906 1.6875 18.984375 1.6875 Z M 18.984375 1.6875 "/>
<path style=" stroke:none;fill-rule:nonzero;fill:rgb(0%,0%,0%);fill-opacity:1;" d="M 2.109375 10.125 L 8.015625 10.125 C 8.246094 10.125 8.4375 10.316406 8.4375 10.546875 L 8.4375 16.453125 C 8.4375 16.683594 8.246094 16.875 8.015625 16.875 L 2.109375 16.875 C 1.878906 16.875 1.6875 16.683594 1.6875 16.453125 L 1.6875 10.546875 C 1.6875 10.316406 1.878906 10.125 2.109375 10.125 Z M 2.109375 10.125 "/>
<path style=" stroke:none;fill-rule:nonzero;fill:rgb(0%,0%,0%);fill-opacity:1;" d="M 10.546875 10.125 L 16.453125 10.125 C 16.683594 10.125 16.875 10.316406 16.875 10.546875 L 16.875 16.453125 C 16.875 16.683594 16.683594 16.875 16.453125 16.875 L 10.546875 16.875 C 10.316406 16.875 10.125 16.683594 10.125 16.453125 L 10.125 10.546875 C 10.125 10.316406 10.316406 10.125 10.546875 10.125 Z M 10.546875 10.125 "/>
<path style=" stroke:none;fill-rule:nonzero;fill:rgb(0%,0%,0%);fill-opacity:1;" d="M 18.984375 10.125 L 24.890625 10.125 C 25.121094 10.125 25.3125 10.316406 25.3125 10.546875 L 25.3125 16.453125 C 25.3125 16.683594 25.121094 16.875 24.890625 16.875 L 18.984375 16.875 C 18.753906 16.875 18.5625 16.683594 18.5625 16.453125 L 18.5625 10.546875 C 18.5625 10.316406 18.753906 10.125 18.984375 10.125 Z M 18.984375 10.125 "/>
<path style=" stroke:none;fill-rule:nonzero;fill:rgb(0%,0%,0%);fill-opacity:1;" d="M 2.109375 18.5625 L 8.015625 18.5625 C 8.246094 18.5625 8.4375 18.753906 8.4375 18.984375 L 8.4375 24.890625 C 8.4375 25.121094 8.246094 25.3125 8.015625 25.3125 L 2.109375 25.3125 C 1.878906 25.3125 1.6875 25.121094 1.6875 24.890625 L 1.6875 18.984375 C 1.6875 18.753906 1.878906 18.5625 2.109375 18.5625 Z M 2.109375 18.5625 "/>
<path style=" stroke:none;fill-rule:nonzero;fill:rgb(0%,0%,0%);fill-opacity:1;" d="M 10.546875 18.5625 L 16.453125 18.5625 C 16.683594 18.5625 16.875 18.753906 16.875 18.984375 L 16.875 24.890625 C 16.875 25.121094 16.683594 25.3125 16.453125 25.3125 L 10.546875 25.3125 C 10.316406 25.3125 10.125 25.121094 10.125 24.890625 L 10.125 18.984375 C 10.125 18.753906 10.316406 18.5625 10.546875 18.5625 Z M 10.546875 18.5625 "/>
<path style=" stroke:none;fill-rule:nonzero;fill:rgb(0%,0%,0%);fill-opacity:1;" d="M 18.984375 18.5625 L 24.890625 18.5625 C 25.121094 18.5625 25.3125 18.753906 25.3125 18.984375 L 25.3125 24.890625 C 25.3125 25.121094 25.121094 25.3125 24.890625 25.3125 L 18.984375 25.3125 C 18.753906 25.3125 18.5625 25.121094 18.5625 24.890625 L 18.5625 18.984375 C 18.5625 18.753906 18.753906 18.5625 18.984375 18.5625 Z M 18.984375 18.5625 "/>
</g>
</svg>
